<svg xmlns="http://www.w3.org/2000/svg" viewBox="0 0 320 72.81"><defs><style>.cls-1,.cls-4{fill:#006955;}.cls-2{fill:#92c83e;}.cls-3{fill:#006e5b;}.cls-4{fill-rule:evenodd;}</style></defs><title>Asset 3</title><g id="Layer_2" data-name="Layer 2"><g id="Layer_1-2" data-name="Layer 1"><path class="cls-1" d="M86.77,60.93h-7.3V57.48h-.11a8.29,8.29,0,0,1-1,1.46,6.85,6.85,0,0,1-1.54,1.3,8.91,8.91,0,0,1-2.08.94,8.52,8.52,0,0,1-2.53.36,10.4,10.4,0,0,1-4.69-.91,6.75,6.75,0,0,1-2.78-2.53,10.13,10.13,0,0,1-1.32-3.8,32.11,32.11,0,0,1-.33-4.75v-14h7.59V48c0,.73,0,1.49.08,2.27a7.42,7.42,0,0,0,.46,2.16A3.69,3.69,0,0,0,72.36,54a3.52,3.52,0,0,0,2.25.63A4.61,4.61,0,0,0,77,54.12a3.63,3.63,0,0,0,1.39-1.45A6.15,6.15,0,0,0,79,50.61a18.29,18.29,0,0,0,.15-2.4V35.6h7.6Z"/><path class="cls-1" d="M90.71,35.6h7v3.33h.1A8.66,8.66,0,0,1,99,37.55a9.14,9.14,0,0,1,1.72-1.28,10.76,10.76,0,0,1,2.15-.94,8.32,8.32,0,0,1,2.48-.36,12.35,12.35,0,0,1,5,1,11.14,11.14,0,0,1,3.82,2.71,12.2,12.2,0,0,1,2.46,4.14,15.59,15.59,0,0,1,.86,5.27,16.34,16.34,0,0,1-.79,5.08,14.31,14.31,0,0,1-2.23,4.3,11,11,0,0,1-3.53,3,9.79,9.79,0,0,1-4.71,1.12,12.69,12.69,0,0,1-4.43-.75,7.13,7.13,0,0,1-3.37-2.58h-.1V72.81h-7.6Zm7,12.67a6.64,6.64,0,0,0,1.6,4.64,6.55,6.55,0,0,0,9,0,6.67,6.67,0,0,0,1.6-4.64,6.69,6.69,0,0,0-1.6-4.64,6.55,6.55,0,0,0-9,0A6.66,6.66,0,0,0,97.7,48.26Z"/><path class="cls-1" d="M121.19,48.26a13.58,13.58,0,0,1,1.06-5.48,12.63,12.63,0,0,1,2.91-4.19,12.76,12.76,0,0,1,4.35-2.68,15.69,15.69,0,0,1,10.69,0,12.49,12.49,0,0,1,7.27,6.87,14.64,14.64,0,0,1,0,10.95,12.51,12.51,0,0,1-7.27,6.88,15.72,15.72,0,0,1-10.69,0,12.75,12.75,0,0,1-4.35-2.69,12.54,12.54,0,0,1-2.91-4.2A13.55,13.55,0,0,1,121.19,48.26Zm7.6,0a6.66,6.66,0,0,0,1.59,4.64,6.55,6.55,0,0,0,9,0,6.66,6.66,0,0,0,1.6-4.64,6.67,6.67,0,0,0-1.6-4.64,6.55,6.55,0,0,0-9,0A6.68,6.68,0,0,0,128.79,48.26Z"/><path class="cls-1" d="M174.94,24h6.54l15.61,36.9h-8.92l-3.09-7.82H171.14l-3,7.82h-8.71Zm3,10.74-4.36,11.47h8.77Z"/><path class="cls-1" d="M228.69,48.26a13.66,13.66,0,0,1,1.06-5.48A12.51,12.51,0,0,1,237,35.91a15.69,15.69,0,0,1,10.69,0A12.49,12.49,0,0,1,255,42.79a14.57,14.57,0,0,1,0,10.95,12.58,12.58,0,0,1-2.91,4.2,12.72,12.72,0,0,1-4.35,2.69,15.72,15.72,0,0,1-10.69,0,12.71,12.71,0,0,1-4.35-2.69,12.53,12.53,0,0,1-2.91-4.2A13.63,13.63,0,0,1,228.69,48.26Zm7.6,0a6.64,6.64,0,0,0,1.6,4.64,6.55,6.55,0,0,0,9,0,6.64,6.64,0,0,0,1.6-4.64,6.66,6.66,0,0,0-1.6-4.64,6.55,6.55,0,0,0-9,0A6.66,6.66,0,0,0,236.29,48.26ZM252.93,24l-7.27,7.16h-6.23L243.62,24Z"/><path class="cls-1" d="M260.31,35.6h7.3V39h.1a6.37,6.37,0,0,1,1-1.46,7.56,7.56,0,0,1,1.57-1.3,9,9,0,0,1,2.08-.94A8.51,8.51,0,0,1,274.9,35a10.23,10.23,0,0,1,4.66.91,6.83,6.83,0,0,1,2.76,2.53,10.5,10.5,0,0,1,1.35,3.81A29.76,29.76,0,0,1,284,47v14h-7.6V48.52c0-.73,0-1.48-.07-2.27a7.4,7.4,0,0,0-.46-2.16,3.73,3.73,0,0,0-1.17-1.61,3.58,3.58,0,0,0-2.25-.63,4.66,4.66,0,0,0-2.38.54,3.78,3.78,0,0,0-1.39,1.46,6,6,0,0,0-.63,2.06,17.94,17.94,0,0,0-.15,2.4V60.93h-7.6Z"/><rect class="cls-2" x="279.24" y="17.62" width="12.7" height="7.97"/><rect class="cls-2" x="307.29" y="17.62" width="12.71" height="7.97"/><rect class="cls-2" x="295.58" width="7.75" height="13.07"/><rect class="cls-2" x="295.58" y="29.43" width="7.75" height="13.07"/><path class="cls-3" d="M59.2,43.23a10.06,10.06,0,0,0-2.8-.38c-4.36,0-7.22,2.35-7.22,8.66v10H41.23V35.8h7.94V40a8.69,8.69,0,0,1,7.63-4.59,5.51,5.51,0,0,1,2.39.43Z"/><path class="cls-1" d="M216.89,45.67c-.31-2.29-1.71-3.83-4.91-3.83-3.78,0-5.53,3.09-5.53,6.6s1.7,6.6,5.84,6.6a4.27,4.27,0,0,0,4.65-3.41h7.91c-.78,5.8-5,10.32-12.93,10.32-8.73,0-13.39-6.38-13.39-13.51s4.65-13.51,13.39-13.51c8.43,0,12.36,5.21,12.87,10.74Z"/><path class="cls-4" d="M28.31,46.92"/><path class="cls-1" d="M28,36.62l8.81-1.87-.08-.2A17.55,17.55,0,0,0,25,23.47c-6.13-1.79-14-.2-18.65,4.38-7,6.87-8.39,19.09-3.11,27.4a19.86,19.86,0,0,0,16.9,9.37c5.73-.27,10.21-2.24,13.3-5.9,5.44-6.42,4.69-15.59,4.66-16l0-.54H19.48l0,7.55h8.85c-.3,5.92-6.41,6.55-6.82,6.62a14.78,14.78,0,0,1-1.71.1,9.92,9.92,0,0,1-9-5.36,15.72,15.72,0,0,1-1.69-5.5c-.48-5.68.84-9.85,3.94-12.39a10.33,10.33,0,0,1,10.08-1.59,8.58,8.58,0,0,1,4.08,3.29A9.69,9.69,0,0,1,28,36.62Z"/></g></g></svg>